<?xml version="1.0" encoding="utf-8"?>
<!-- Generator: Adobe Illustrator 21.1.0, SVG Export Plug-In . SVG Version: 6.00 Build 0)  -->
<svg version="1.1" id="Layer_1" xmlns="http://www.w3.org/2000/svg" xmlns:xlink="http://www.w3.org/1999/xlink" x="0px" y="0px"
	 viewBox="0 0 362.4 362.4" style="enable-background:new 0 0 362.4 362.4;" xml:space="preserve">
<style type="text/css">
	.st0{fill:#E5B922;}
	.st1{fill:#2F2F2F;}
</style>
<path class="st0" d="M337.9,0H24.5C11.2,0.9,0.9,11.2,0,24.1V338c0.9,13.2,10.8,23.3,23.5,24.4c0.2,0,0.5,0,0.7,0h314.1
	c0.2,0,0.4,0,0.7,0c13.2-1.2,23.5-12.5,23.5-25.8V25.8C362.5,12.3,352,1,338.6,0C338.3,0,338.1,0,337.9,0L337.9,0z"/>
<rect x="43.6" y="124.7" class="st1" width="28.8" height="111.2"/>
<path class="st1" d="M133.6,124.7l-6.6,52l-4.1-28.3c-1.2-9.1-2.4-17-3.5-23.8H82.1v111.2h25.2l0.1-73.4l10.5,73.4h17.9l10.1-75.1
	v75.1H171V124.7H133.6z"/>
<path class="st1" d="M215.8,235.9c6.9,0,12.1-0.4,15.5-1.1c3.5-0.7,6.4-2,8.6-4c2.3-1.8,4-4.5,4.9-7.9s1.5-10,1.5-20v-39
	c0-10.5-0.4-17.6-1.1-21.2c-0.6-3.6-2.2-6.9-4.7-9.7c-2.6-3-6.3-5-11.3-6.4c-4.8-1.2-12.9-1.9-26.7-1.9H181v111.2H215.8z
	 M216.1,144.8c1.1,0.6,1.8,1.6,2.1,3.1c0.4,1.4,0.5,4.7,0.5,9.7v43.1c0,7.4-0.5,11.9-1.4,13.5c-0.9,1.7-3.5,2.6-7.6,2.6v-73
	C212.8,143.8,214.9,144.1,216.1,144.8z"/>
<path class="st1" d="M256,124.7v111.2h25.9l1.7-7.1c2.4,2.9,4.9,5,7.8,6.5c2.8,1.3,7,2,10.2,2c4.6,0,8.5-1.1,11.8-3.6
	c3.3-2.4,5.4-5.2,6.3-8.5c0.8-3.3,1.3-8.2,1.3-14.9v-31.2c0-6.7-0.2-11.1-0.5-13.1s-1.1-4.2-2.6-6.3c-1.5-2.2-3.7-3.8-6.4-5
	c-2.8-1.1-6-1.7-9.9-1.7c-3.3,0-7.5,0.7-10.3,1.9c-2.8,1.3-5.3,3.4-7.7,6v-36.3H256V124.7z M293.4,209c0,5.3-0.3,8.7-0.8,10.1
	c-0.5,1.4-2.9,2.2-4.6,2.2c-1.6,0-2.9-0.7-3.4-2c-0.6-1.3-0.9-4.5-0.9-9.4v-29.4c0-5,0.3-8.2,0.8-9.4s1.6-1.8,3.3-1.8
	c1.7,0,4.1,0.6,4.7,2.2c0.6,1.4,0.9,4.5,0.9,9.1V209z"/>
</svg>
