<?xml version="1.0" encoding="utf-8"?>
<!-- Generator: Adobe Illustrator 21.1.0, SVG Export Plug-In . SVG Version: 6.00 Build 0)  -->
<svg version="1.1" id="Layer_1" xmlns="http://www.w3.org/2000/svg" xmlns:xlink="http://www.w3.org/1999/xlink" x="0px" y="0px"
	 viewBox="0 0 88 88" style="enable-background:new 0 0 88 88;" xml:space="preserve">
<style type="text/css">
	.st0{fill:#0075C4;}
	.st1{fill:#2F2F2F;}
</style>
<circle class="st0" cx="44" cy="44" r="41.6"/>
<path class="st1" d="M10.3,49.4l6.5-6.8l3.9,3.6c-0.7-5.2,0.5-9.5,3.7-12.9c1.7-1.8,3.5-3,5.5-3.6s4.1-0.7,6.5-0.1
	c-0.4-2.6-0.2-5,0.4-7.1c0.6-2.1,1.7-4,3.2-5.6c1.9-2.1,4-3.4,6.2-4s4.4-0.6,6.7,0.3c1.7,0.6,3.9,2.2,6.6,4.7l18.1,16.8l-7,7.4
	l-16.2-15c-2.8-2.6-4.9-4-6.2-4.3c-1.7-0.3-3.2,0.3-4.6,1.7c-1,1-1.6,2.3-1.8,3.8s0.1,3,1,4.6c0.9,1.5,2.6,3.6,5.3,6l13.6,12.6
	l-7,7.4L39.2,44.3c-2.8-2.5-4.7-4.1-5.7-4.5c-1.1-0.5-2-0.6-2.9-0.4c-0.9,0.2-1.8,0.8-2.7,1.7c-1.1,1.1-1.7,2.5-2,3.9
	c-0.2,1.5,0,3,0.8,4.5s2.6,3.5,5.3,6l13.8,12.7l-7,7.4L10.3,49.4z"/>
</svg>
