<?xml version="1.0" encoding="utf-8"?>
<!-- Generator: Adobe Illustrator 21.1.0, SVG Export Plug-In . SVG Version: 6.00 Build 0)  -->
<svg version="1.1" id="Layer_1" xmlns="http://www.w3.org/2000/svg" xmlns:xlink="http://www.w3.org/1999/xlink" x="0px" y="0px"
	 viewBox="0 0 44.9 44.9" style="enable-background:new 0 0 44.9 44.9;" xml:space="preserve">
<style type="text/css">
	.st0{display:none;fill:#FFFFFF;}
	.st1{fill:#FB3209;}
	.st2{fill:#2F2F2F;}
</style>
<g>
	<polygon class="st0" points="-4.6,-4.6 49.5,-4.6 49.5,49.5 -4.6,49.5 	"/>
	<path class="st1" d="M20.8,5.8c13.1-2,22.8,5.8,23.3,18.4c0,11.8-11.7,19.9-22.6,19.9c-11.1,0-20.3-7.4-20.3-18.9
		c-0.1-6.5,3.2-11.6,8.3-15c-1.8,0-3.6,0.2-5.4,0.5c-0.7,0.2-0.7,0-0.1-1c2-2.9,5.1-4,8.1-3.4l-3.3-3L11.6,1l3,4.4
		c1.2-2.9,5.1-5,7.8-2.9c0.2,0.2,0.3,0.3,0.3,0.4c0,0.3-0.3,0.2-0.8,0.4c-0.9,0.5-1.3,1.4-1.3,2.5H20.8L20.8,5.8z"/>
	<polygon class="st2" points="37.9,23.6 33,23.6 33,37 27.4,37 27.4,23.6 22.5,23.6 22.5,18.2 37.9,18.2 	"/>
	<path class="st2" d="M15.5,26.5h-0.9v6.1H8.8V13.7h8.3c4.7,0,7.6,2.6,7.6,6.5c0,2.4-0.8,4.4-3.1,5.6l3.9,6.7H19L15.5,26.5
		L15.5,26.5z M14.6,22.1h1.7c1.5,0,2.5-0.8,2.5-2s-1-2-2.5-2h-1.7L14.6,22.1L14.6,22.1z"/>
</g>
</svg>
